<svg xmlns="http://www.w3.org/2000/svg" viewBox="0 0 512 512">
  <rect width="512" height="512" rx="128" fill="#002147"/>
  <path d="M256 64L288 160H384L320 224L352 320L256 256L160 320L192 224L128 160H224L256 64Z" fill="#DC2626" transform="translate(0, 50)"/>
  <path d="M256 96C256 96 235.6 179.3 234 186C232 194.2 225.2 200.2 216.8 201.2C209.7 202.1 138 211 138 211L193.3 260.6C199.6 266.3 202.3 275 200.3 283.3L184.2 350L247 312.2C252.6 308.8 259.4 308.8 265 312.2L327.8 350L311.7 283.3C309.7 275 312.4 266.3 318.7 260.6L374 211C374 211 302.3 202.1 295.2 201.2C286.8 200.2 280 194.2 278 186C276.4 179.3 256 96 256 96Z" fill="#DC2626"/>
  <path d="M256 128L256 400" stroke="white" stroke-width="12" stroke-linecap="round"/>
</svg>
